<svg width="19" height="19" viewBox="0 0 19 19" fill="none" xmlns="http://www.w3.org/2000/svg">
<path d="M8 3H3C2.46957 3 1.96086 3.21071 1.58579 3.58578C1.21071 3.96086 1 4.46957 1 5V16C1 16.5304 1.21071 17.0391 1.58579 17.4142C1.96086 17.7893 2.46957 18 3 18H14C14.5304 18 15.0391 17.7893 15.4142 17.4142C15.7893 17.0391 16 16.5304 16 16V11M14.586 1.586C14.7705 1.39498 14.9912 1.24261 15.2352 1.1378C15.4792 1.03298 15.7416 0.977805 16.0072 0.975497C16.2728 0.97319 16.5361 1.02379 16.7819 1.12436C17.0277 1.22492 17.251 1.37342 17.4388 1.56121C17.6266 1.74899 17.7751 1.9723 17.8756 2.21809C17.9762 2.46388 18.0268 2.72724 18.0245 2.9928C18.0222 3.25836 17.967 3.5208 17.8622 3.76481C17.7574 4.00882 17.605 4.2295 17.414 4.414L8.828 13H6V10.172L14.586 1.586Z" stroke="#282531" stroke-width="1.5" stroke-linecap="round" stroke-linejoin="round"/>
</svg>
